<svg width="81" height="80" viewBox="0 0 81 80" fill="none" xmlns="http://www.w3.org/2000/svg">
<path opacity="0.5" d="M73.8332 53.3326V49.9993C73.8332 40.5712 73.8324 35.8586 70.9035 32.9297C67.9745 30.0008 63.2605 30.0008 53.8324 30.0008H27.1657C17.7377 30.0008 13.0236 30.0008 10.0947 32.9297C7.1665 35.8579 7.1665 40.5687 7.1665 49.992V49.9993V53.3326C7.1665 62.7607 7.1665 67.4747 10.0954 70.4037C13.0244 73.3326 17.7384 73.3326 27.1665 73.3326H53.8332H53.8332C63.2613 73.3326 67.9753 73.3326 70.9042 70.4037C73.8332 67.4747 73.8332 62.7607 73.8332 53.3326Z" fill="#130F40"/>
<path fill-rule="evenodd" clip-rule="evenodd" d="M40.5 52.5C41.8808 52.5 43 51.3807 43 50L43 13.4248L48.6019 19.9603C49.5005 21.0086 51.0787 21.13 52.127 20.2315C53.1753 19.3329 53.2967 17.7547 52.3982 16.7064L42.3982 5.03969C41.9232 4.48557 41.2299 4.16667 40.5 4.16667C39.7702 4.16667 39.0769 4.48557 38.6019 5.03969L28.6019 16.7064C27.7033 17.7547 27.8248 19.3329 28.8731 20.2315C29.9214 21.13 31.4996 21.0086 32.3982 19.9603L38 13.4248L38 50C38 51.3807 39.1193 52.5 40.5 52.5Z" fill="#130F40"/>
</svg>
